<svg width="314" height="27" viewBox="0 0 314 27" fill="none" xmlns="http://www.w3.org/2000/svg">
<rect x="122.501" y="4.91769" width="83.383" height="17.7037" rx="5" fill="#F6F2E6"/>
<path d="M267.995 20V7.5H271.814C272.722 7.5 273.495 7.68056 274.134 8.04167C274.782 8.40278 275.277 8.88426 275.62 9.48611C275.962 10.0787 276.134 10.7315 276.134 11.4444C276.134 12.0926 275.99 12.6806 275.703 13.2083C275.425 13.7361 275.027 14.1713 274.509 14.5139L277.814 20H275.078L272.3 15.25H270.412V20H267.995ZM270.412 13.1667H271.759C272.212 13.1667 272.583 13.0833 272.87 12.9167C273.157 12.7407 273.37 12.5231 273.509 12.2639C273.648 11.9954 273.717 11.7222 273.717 11.4444C273.717 10.9537 273.537 10.5509 273.175 10.2361C272.814 9.91204 272.342 9.75 271.759 9.75H270.412V13.1667ZM284.684 20.25C283.767 20.25 282.911 20.0833 282.115 19.75C281.318 19.4074 280.615 18.9398 280.004 18.3472C279.402 17.7546 278.929 17.0648 278.587 16.2778C278.244 15.4907 278.073 14.6481 278.073 13.75C278.073 12.8519 278.244 12.0093 278.587 11.2222C278.929 10.4352 279.402 9.74537 280.004 9.15278C280.615 8.56018 281.318 8.09722 282.115 7.76389C282.911 7.4213 283.767 7.25 284.684 7.25C285.601 7.25 286.457 7.4213 287.254 7.76389C288.05 8.09722 288.749 8.56018 289.351 9.15278C289.962 9.74537 290.439 10.4352 290.781 11.2222C291.124 12.0093 291.295 12.8519 291.295 13.75C291.295 14.6481 291.124 15.4907 290.781 16.2778C290.439 17.0648 289.962 17.7546 289.351 18.3472C288.749 18.9398 288.05 19.4074 287.254 19.75C286.457 20.0833 285.601 20.25 284.684 20.25ZM284.684 17.8333C285.434 17.8333 286.11 17.6528 286.712 17.2917C287.314 16.9213 287.791 16.4259 288.142 15.8056C288.504 15.1852 288.684 14.5 288.684 13.75C288.684 12.9907 288.504 12.3056 288.142 11.6944C287.791 11.0741 287.314 10.5833 286.712 10.2222C286.11 9.85185 285.434 9.66667 284.684 9.66667C283.934 9.66667 283.254 9.85185 282.642 10.2222C282.041 10.5833 281.564 11.0741 281.212 11.6944C280.86 12.3056 280.684 12.9907 280.684 13.75C280.684 14.5 280.86 15.1852 281.212 15.8056C281.564 16.4259 282.041 16.9213 282.642 17.2917C283.254 17.6528 283.934 17.8333 284.684 17.8333ZM291.806 20L297.32 7.05556H297.348L302.862 20H300.348L299.417 17.7778H295.167L294.237 20H291.806ZM296.001 15.7778H298.584L298.042 14.5C297.894 14.1574 297.755 13.8287 297.626 13.5139C297.505 13.1898 297.389 12.8148 297.278 12.3889C297.176 12.8056 297.065 13.1759 296.945 13.5C296.825 13.8241 296.69 14.1574 296.542 14.5L296.001 15.7778ZM307.568 20.2778C306.809 20.2778 306.086 20.1389 305.401 19.8611C304.725 19.5741 304.184 19.2315 303.776 18.8333L304.457 16.0556C304.781 16.6204 305.239 17.0926 305.832 17.4722C306.424 17.8426 307.031 18.0278 307.651 18.0278C308.16 18.0278 308.559 17.8889 308.846 17.6111C309.142 17.3333 309.29 16.9954 309.29 16.5972C309.29 16.2731 309.211 16.0046 309.054 15.7917C308.906 15.5787 308.725 15.4028 308.512 15.2639C308.309 15.125 308.128 15.0185 307.971 14.9444L306.498 14.2083C306.072 13.9954 305.665 13.7454 305.276 13.4583C304.887 13.162 304.568 12.7963 304.318 12.3611C304.077 11.9259 303.957 11.3889 303.957 10.75C303.957 10.0463 304.114 9.43056 304.429 8.90278C304.753 8.375 305.207 7.96296 305.79 7.66667C306.373 7.37037 307.059 7.22222 307.846 7.22222C308.586 7.22222 309.244 7.34259 309.818 7.58333C310.401 7.81481 310.873 8.06481 311.234 8.33333L310.596 11.0417C310.225 10.5602 309.781 10.1759 309.262 9.88889C308.753 9.59259 308.244 9.44444 307.734 9.44444C307.281 9.44444 306.929 9.56018 306.679 9.79167C306.438 10.0231 306.318 10.3102 306.318 10.6528C306.318 10.8657 306.364 11.0556 306.457 11.2222C306.559 11.3889 306.702 11.537 306.887 11.6667C307.072 11.7963 307.29 11.9259 307.54 12.0556L309.026 12.7917C309.276 12.912 309.549 13.0694 309.846 13.2639C310.142 13.4491 310.429 13.6852 310.707 13.9722C310.984 14.2593 311.211 14.6065 311.387 15.0139C311.563 15.412 311.651 15.8889 311.651 16.4444C311.651 17.1667 311.484 17.8194 311.151 18.4028C310.818 18.9769 310.346 19.4352 309.734 19.7778C309.133 20.1111 308.41 20.2778 307.568 20.2778Z" fill="#F6F2E6"/>
<path d="M222.51 20.25C221.593 20.25 220.737 20.0833 219.941 19.75C219.144 19.4074 218.441 18.9398 217.829 18.3472C217.228 17.7546 216.755 17.0648 216.413 16.2778C216.07 15.4907 215.899 14.6481 215.899 13.75C215.899 12.8519 216.07 12.0093 216.413 11.2222C216.755 10.4352 217.228 9.74537 217.829 9.15278C218.441 8.56018 219.144 8.09722 219.941 7.76389C220.737 7.4213 221.593 7.25 222.51 7.25C223.334 7.25 224.112 7.38426 224.843 7.65278C225.575 7.9213 226.228 8.30093 226.802 8.79167L226.093 11.7083C225.751 11.1343 225.278 10.6528 224.677 10.2639C224.075 9.86574 223.38 9.66667 222.593 9.66667C221.843 9.66667 221.163 9.85185 220.552 10.2222C219.95 10.5833 219.473 11.0741 219.121 11.6944C218.769 12.3056 218.593 12.9907 218.593 13.75C218.593 14.5 218.769 15.1852 219.121 15.8056C219.473 16.4259 219.95 16.9213 220.552 17.2917C221.163 17.6528 221.843 17.8333 222.593 17.8333C223.371 17.8333 224.061 17.6389 224.663 17.25C225.274 16.8519 225.751 16.3657 226.093 15.7917L226.802 18.7083C226.218 19.1898 225.561 19.5694 224.829 19.8472C224.107 20.1157 223.334 20.25 222.51 20.25ZM227.405 20L232.919 7.05556H232.947L238.461 20H235.947L235.016 17.7778H230.766L229.836 20H227.405ZM231.6 15.7778H234.183L233.641 14.5C233.493 14.1574 233.354 13.8287 233.225 13.5139C233.104 13.1898 232.989 12.8148 232.878 12.3889C232.776 12.8056 232.665 13.1759 232.544 13.5C232.424 13.8241 232.29 14.1574 232.141 14.5L231.6 15.7778ZM245.576 20.25C244.66 20.25 243.803 20.0833 243.007 19.75C242.211 19.4074 241.507 18.9398 240.896 18.3472C240.294 17.7546 239.822 17.0648 239.479 16.2778C239.137 15.4907 238.965 14.6481 238.965 13.75C238.965 12.8519 239.137 12.0093 239.479 11.2222C239.822 10.4352 240.294 9.74537 240.896 9.15278C241.507 8.56018 242.211 8.09722 243.007 7.76389C243.803 7.4213 244.66 7.25 245.576 7.25C246.4 7.25 247.178 7.38426 247.91 7.65278C248.641 7.9213 249.294 8.30093 249.868 8.79167L249.16 11.7083C248.817 11.1343 248.345 10.6528 247.743 10.2639C247.141 9.86574 246.447 9.66667 245.66 9.66667C244.91 9.66667 244.229 9.85185 243.618 10.2222C243.016 10.5833 242.539 11.0741 242.187 11.6944C241.836 12.3056 241.66 12.9907 241.66 13.75C241.66 14.5 241.836 15.1852 242.187 15.8056C242.539 16.4259 243.016 16.9213 243.618 17.2917C244.229 17.6528 244.91 17.8333 245.66 17.8333C246.437 17.8333 247.127 17.6389 247.729 17.25C248.34 16.8519 248.817 16.3657 249.16 15.7917L249.868 18.7083C249.285 19.1898 248.627 19.5694 247.896 19.8472C247.174 20.1157 246.4 20.25 245.576 20.25Z" fill="#F6F2E6"/>
<path d="M135.2 20V7.5H139.019C139.927 7.5 140.7 7.68056 141.339 8.04167C141.987 8.40278 142.482 8.88426 142.825 9.48611C143.167 10.0787 143.339 10.7315 143.339 11.4444C143.339 12.0926 143.195 12.6806 142.908 13.2083C142.63 13.7361 142.232 14.1713 141.714 14.5139L145.019 20H142.283L139.505 15.25H137.616V20H135.2ZM137.616 13.1667H138.964C139.417 13.1667 139.788 13.0833 140.075 12.9167C140.362 12.7407 140.575 12.5231 140.714 12.2639C140.852 11.9954 140.922 11.7222 140.922 11.4444C140.922 10.9537 140.741 10.5509 140.38 10.2361C140.019 9.91204 139.547 9.75 138.964 9.75H137.616V13.1667ZM149.627 20.2778C148.692 20.2778 147.868 20.0833 147.155 19.6944C146.442 19.3056 145.886 18.7731 145.488 18.0972C145.09 17.412 144.891 16.6296 144.891 15.75C144.891 14.9074 145.086 14.162 145.474 13.5139C145.863 12.8565 146.386 12.338 147.044 11.9583C147.711 11.5787 148.447 11.3889 149.252 11.3889C150.076 11.3889 150.812 11.5787 151.461 11.9583C152.109 12.3287 152.618 12.838 152.988 13.4861C153.368 14.1343 153.558 14.8704 153.558 15.6944V16.5417H148.474C148.243 16.5417 148.021 16.5278 147.808 16.5C147.595 16.4722 147.382 16.4398 147.169 16.4028C147.28 16.9583 147.553 17.412 147.988 17.7639C148.433 18.1065 148.998 18.2778 149.683 18.2778C150.211 18.2778 150.683 18.1713 151.099 17.9583C151.525 17.7454 151.873 17.4815 152.141 17.1667L152.669 19.3333C152.252 19.6481 151.78 19.8843 151.252 20.0417C150.734 20.1991 150.192 20.2778 149.627 20.2778ZM147.113 14.9444C147.576 14.8426 148.03 14.7917 148.474 14.7917H149.947C150.206 14.7917 150.451 14.8009 150.683 14.8194C150.914 14.838 151.132 14.8704 151.336 14.9167C151.197 14.4167 150.942 14.0231 150.572 13.7361C150.211 13.4491 149.761 13.3056 149.224 13.3056C148.715 13.3056 148.271 13.4537 147.891 13.75C147.521 14.037 147.261 14.4352 147.113 14.9444ZM155.87 20V13.5833H154.314V11.6667H155.912V8.88889H158.245V11.6667H159.898V13.5833H158.287V20H155.87ZM164.821 20.2778C163.997 20.2778 163.242 20.0787 162.557 19.6806C161.872 19.2824 161.325 18.7454 160.918 18.0694C160.52 17.3935 160.321 16.6481 160.321 15.8333C160.321 15.0093 160.52 14.2639 160.918 13.5972C161.325 12.9213 161.872 12.3843 162.557 11.9861C163.242 11.588 163.997 11.3889 164.821 11.3889C165.654 11.3889 166.409 11.588 167.085 11.9861C167.77 12.3843 168.312 12.9213 168.71 13.5972C169.117 14.2639 169.321 15.0093 169.321 15.8333C169.321 16.6481 169.117 17.3935 168.71 18.0694C168.312 18.7454 167.77 19.2824 167.085 19.6806C166.409 20.0787 165.654 20.2778 164.821 20.2778ZM164.821 18.1111C165.237 18.1111 165.612 18.0093 165.946 17.8056C166.288 17.6019 166.557 17.3287 166.751 16.9861C166.955 16.6343 167.057 16.25 167.057 15.8333C167.057 15.4074 166.955 15.0231 166.751 14.6806C166.557 14.338 166.288 14.0648 165.946 13.8611C165.612 13.6574 165.237 13.5556 164.821 13.5556C164.404 13.5556 164.025 13.6574 163.682 13.8611C163.349 14.0648 163.08 14.338 162.876 14.6806C162.682 15.0231 162.585 15.4074 162.585 15.8333C162.585 16.25 162.682 16.6343 162.876 16.9861C163.08 17.3287 163.349 17.6019 163.682 17.8056C164.025 18.0093 164.404 18.1111 164.821 18.1111ZM170.737 20V11.6667H172.904V13.0972C173.191 12.6157 173.552 12.2454 173.987 11.9861C174.432 11.7176 174.95 11.5833 175.543 11.5833L176.071 13.7222C175.895 13.6667 175.696 13.6389 175.474 13.6389C174.779 13.6389 174.219 13.8657 173.793 14.3194C173.367 14.7639 173.154 15.4028 173.154 16.2361V20H170.737ZM177.124 20V11.6667H179.291V12.5833C179.587 12.1944 179.953 11.8981 180.388 11.6944C180.823 11.4907 181.291 11.3889 181.791 11.3889C182.383 11.3889 182.934 11.5324 183.444 11.8194C183.962 12.0972 184.379 12.5093 184.694 13.0556C185.018 13.5926 185.18 14.2454 185.18 15.0139V20H182.763V15.3333C182.763 14.8704 182.624 14.4583 182.346 14.0972C182.069 13.7361 181.67 13.5556 181.152 13.5556C180.735 13.5556 180.36 13.6991 180.027 13.9861C179.703 14.2639 179.541 14.7037 179.541 15.3056V20H177.124ZM190.934 20.2778C190.11 20.2778 189.355 20.0787 188.67 19.6806C187.985 19.2824 187.439 18.7454 187.031 18.0694C186.633 17.3935 186.434 16.6481 186.434 15.8333C186.434 15.0093 186.633 14.2639 187.031 13.5972C187.439 12.9213 187.985 12.3843 188.67 11.9861C189.355 11.588 190.11 11.3889 190.934 11.3889C191.767 11.3889 192.522 11.588 193.198 11.9861C193.883 12.3843 194.425 12.9213 194.823 13.5972C195.23 14.2639 195.434 15.0093 195.434 15.8333C195.434 16.6481 195.23 17.3935 194.823 18.0694C194.425 18.7454 193.883 19.2824 193.198 19.6806C192.522 20.0787 191.767 20.2778 190.934 20.2778ZM190.934 18.1111C191.351 18.1111 191.726 18.0093 192.059 17.8056C192.402 17.6019 192.67 17.3287 192.865 16.9861C193.068 16.6343 193.17 16.25 193.17 15.8333C193.17 15.4074 193.068 15.0231 192.865 14.6806C192.67 14.338 192.402 14.0648 192.059 13.8611C191.726 13.6574 191.351 13.5556 190.934 13.5556C190.517 13.5556 190.138 13.6574 189.795 13.8611C189.462 14.0648 189.193 14.338 188.99 14.6806C188.795 15.0231 188.698 15.4074 188.698 15.8333C188.698 16.25 188.795 16.6343 188.99 16.9861C189.193 17.3287 189.462 17.6019 189.795 17.8056C190.138 18.0093 190.517 18.1111 190.934 18.1111Z" fill="#315576"/>
<path d="M1.41667 20V7.5H4V20H1.41667ZM6.32682 20V11.6667H8.49349V12.5833C8.78979 12.1944 9.15553 11.8981 9.59071 11.6944C10.0259 11.4907 10.4935 11.3889 10.9935 11.3889C11.5861 11.3889 12.137 11.5324 12.6463 11.8194C13.1648 12.0972 13.5815 12.5093 13.8963 13.0556C14.2203 13.5926 14.3824 14.2454 14.3824 15.0139V20H11.9657V15.3333C11.9657 14.8704 11.8268 14.4583 11.549 14.0972C11.2713 13.7361 10.8731 13.5556 10.3546 13.5556C9.93793 13.5556 9.56293 13.6991 9.2296 13.9861C8.90553 14.2639 8.74349 14.7037 8.74349 15.3056V20H6.32682ZM19.3793 20.4167L14.8099 11.6667H17.4905L18.796 14.3472C18.9164 14.5787 19.0275 14.8102 19.1293 15.0417C19.2312 15.2639 19.333 15.5185 19.4349 15.8056C19.5367 15.5185 19.6386 15.2639 19.7405 15.0417C19.8423 14.8102 19.9534 14.5787 20.0738 14.3472L21.3793 11.6667H23.9488L19.3793 20.4167ZM28.8494 20.2778C27.9142 20.2778 27.0901 20.0833 26.3772 19.6944C25.6642 19.3056 25.1087 18.7731 24.7105 18.0972C24.3124 17.412 24.1133 16.6296 24.1133 15.75C24.1133 14.9074 24.3077 14.162 24.6966 13.5139C25.0855 12.8565 25.6087 12.338 26.2661 11.9583C26.9327 11.5787 27.6688 11.3889 28.4744 11.3889C29.2985 11.3889 30.0346 11.5787 30.6827 11.9583C31.3309 12.3287 31.8401 12.838 32.2105 13.4861C32.5901 14.1343 32.7799 14.8704 32.7799 15.6944V16.5417H27.6966C27.4651 16.5417 27.2429 16.5278 27.0299 16.5C26.817 16.4722 26.604 16.4398 26.3911 16.4028C26.5022 16.9583 26.7753 17.412 27.2105 17.7639C27.6549 18.1065 28.2198 18.2778 28.9049 18.2778C29.4327 18.2778 29.9049 18.1713 30.3216 17.9583C30.7475 17.7454 31.0948 17.4815 31.3633 17.1667L31.8911 19.3333C31.4744 19.6481 31.0022 19.8843 30.4744 20.0417C29.9559 20.1991 29.4142 20.2778 28.8494 20.2778ZM26.3355 14.9444C26.7985 14.8426 27.2522 14.7917 27.6966 14.7917H29.1688C29.4281 14.7917 29.6735 14.8009 29.9049 14.8194C30.1364 14.838 30.354 14.8704 30.5577 14.9167C30.4188 14.4167 30.1642 14.0231 29.7938 13.7361C29.4327 13.4491 28.9837 13.3056 28.4466 13.3056C27.9374 13.3056 27.4929 13.4537 27.1133 13.75C26.7429 14.037 26.4837 14.4352 26.3355 14.9444ZM36.8559 20.2778C36.2911 20.2778 35.717 20.1852 35.1337 20C34.5596 19.8148 34.1105 19.5648 33.7865 19.25L34.3837 16.9722C34.6522 17.3426 35.0226 17.6667 35.4948 17.9444C35.9763 18.2222 36.4716 18.3611 36.9809 18.3611C37.3235 18.3611 37.5689 18.2963 37.717 18.1667C37.8744 18.037 37.9531 17.8796 37.9531 17.6944C37.9531 17.4815 37.8744 17.3287 37.717 17.2361C37.5596 17.1343 37.3976 17.0509 37.2309 16.9861L36.0642 16.5417C35.805 16.4398 35.5087 16.3009 35.1753 16.125C34.842 15.9491 34.5503 15.6991 34.3003 15.375C34.0596 15.0509 33.9392 14.625 33.9392 14.0972C33.9392 13.6157 34.0596 13.1713 34.3003 12.7639C34.5411 12.3565 34.8883 12.0278 35.342 11.7778C35.805 11.5185 36.3605 11.3889 37.0087 11.3889C37.6105 11.3889 38.1707 11.4907 38.6892 11.6944C39.217 11.8981 39.6013 12.125 39.842 12.375L39.2865 14.5694C38.9716 14.162 38.5966 13.8519 38.1615 13.6389C37.7355 13.4167 37.3281 13.3056 36.9392 13.3056C36.6429 13.3056 36.4253 13.3657 36.2865 13.4861C36.1476 13.6065 36.0781 13.7454 36.0781 13.9028C36.0781 14.0231 36.1244 14.1435 36.217 14.2639C36.3189 14.375 36.4855 14.4769 36.717 14.5694L37.8003 14.9722C38.1152 15.0833 38.4485 15.2315 38.8003 15.4167C39.1615 15.6019 39.467 15.8611 39.717 16.1944C39.967 16.5185 40.092 16.9676 40.092 17.5417C40.092 18.3472 39.7911 19.0046 39.1892 19.5139C38.5966 20.0231 37.8189 20.2778 36.8559 20.2778ZM42.4553 20V13.5833H40.8997V11.6667H42.497V8.88889H44.8303V11.6667H46.4831V13.5833H44.872V20H42.4553ZM47.7609 20V11.6667H50.1775V20H47.7609ZM48.9692 10.4583C48.6081 10.4583 48.3025 10.3333 48.0525 10.0833C47.8025 9.83333 47.6775 9.52778 47.6775 9.16667C47.6775 8.7963 47.8025 8.49074 48.0525 8.25C48.3025 8 48.6081 7.875 48.9692 7.875C49.3396 7.875 49.6451 8 49.8859 8.25C50.1359 8.49074 50.2609 8.7963 50.2609 9.16667C50.2609 9.52778 50.1359 9.83333 49.8859 10.0833C49.6451 10.3333 49.3396 10.4583 48.9692 10.4583ZM52.0299 20V11.6667H54.1966V12.5833C54.4929 12.1944 54.8587 11.8981 55.2938 11.6944C55.7383 11.4907 56.2012 11.3889 56.6827 11.3889C57.1735 11.3889 57.6364 11.4907 58.0716 11.6944C58.5068 11.8981 58.8725 12.1944 59.1688 12.5833C59.4929 12.1944 59.8957 11.8981 60.3772 11.6944C60.8587 11.4907 61.3818 11.3889 61.9466 11.3889C62.5392 11.3889 63.0948 11.5278 63.6133 11.8056C64.1318 12.0741 64.5531 12.4722 64.8772 13C65.2012 13.5185 65.3633 14.1528 65.3633 14.9028V20H62.9466V15.25C62.9466 14.8056 62.817 14.412 62.5577 14.0694C62.2985 13.7269 61.9235 13.5556 61.4327 13.5556C61.1735 13.5556 60.9235 13.6204 60.6827 13.75C60.4512 13.8704 60.2614 14.0556 60.1133 14.3056C59.9744 14.5463 59.9049 14.8519 59.9049 15.2222V20H57.4883V15.25C57.4883 14.9537 57.4281 14.6759 57.3077 14.4167C57.1966 14.1574 57.0253 13.9491 56.7938 13.7917C56.5716 13.6343 56.2985 13.5556 55.9744 13.5556C55.7151 13.5556 55.4651 13.6204 55.2244 13.75C54.9929 13.8704 54.8031 14.0556 54.6549 14.3056C54.5161 14.5463 54.4466 14.8519 54.4466 15.2222V20H52.0299ZM71.3494 20.2778C70.4142 20.2778 69.5901 20.0833 68.8772 19.6944C68.1642 19.3056 67.6087 18.7731 67.2105 18.0972C66.8124 17.412 66.6133 16.6296 66.6133 15.75C66.6133 14.9074 66.8077 14.162 67.1966 13.5139C67.5855 12.8565 68.1087 12.338 68.7661 11.9583C69.4327 11.5787 70.1688 11.3889 70.9744 11.3889C71.7985 11.3889 72.5346 11.5787 73.1827 11.9583C73.8309 12.3287 74.3401 12.838 74.7105 13.4861C75.0901 14.1343 75.2799 14.8704 75.2799 15.6944V16.5417H70.1966C69.9651 16.5417 69.7429 16.5278 69.5299 16.5C69.317 16.4722 69.104 16.4398 68.8911 16.4028C69.0022 16.9583 69.2753 17.412 69.7105 17.7639C70.1549 18.1065 70.7198 18.2778 71.4049 18.2778C71.9327 18.2778 72.4049 18.1713 72.8216 17.9583C73.2475 17.7454 73.5948 17.4815 73.8633 17.1667L74.3911 19.3333C73.9744 19.6481 73.5022 19.8843 72.9744 20.0417C72.4559 20.1991 71.9142 20.2778 71.3494 20.2778ZM68.8355 14.9444C69.2985 14.8426 69.7522 14.7917 70.1966 14.7917H71.6688C71.9281 14.7917 72.1735 14.8009 72.4049 14.8194C72.6364 14.838 72.854 14.8704 73.0577 14.9167C72.9188 14.4167 72.6642 14.0231 72.2938 13.7361C71.9327 13.4491 71.4837 13.3056 70.9466 13.3056C70.4374 13.3056 69.9929 13.4537 69.6133 13.75C69.2429 14.037 68.9837 14.4352 68.8355 14.9444ZM76.6198 20V11.6667H78.7865V12.5833C79.0828 12.1944 79.4485 11.8981 79.8837 11.6944C80.3189 11.4907 80.7865 11.3889 81.2865 11.3889C81.8791 11.3889 82.43 11.5324 82.9392 11.8194C83.4578 12.0972 83.8744 12.5093 84.1892 13.0556C84.5133 13.5926 84.6753 14.2454 84.6753 15.0139V20H82.2587V15.3333C82.2587 14.8704 82.1198 14.4583 81.842 14.0972C81.5642 13.7361 81.1661 13.5556 80.6476 13.5556C80.2309 13.5556 79.8559 13.6991 79.5226 13.9861C79.1985 14.2639 79.0365 14.7037 79.0365 15.3056V20H76.6198ZM87.0451 20V13.5833H85.4896V11.6667H87.0868V8.88889H89.4201V11.6667H91.0729V13.5833H89.4618V20H87.0451ZM95.9961 20.2778C95.172 20.2778 94.4174 20.0787 93.7322 19.6806C93.047 19.2824 92.5007 18.7454 92.0933 18.0694C91.6952 17.3935 91.4961 16.6481 91.4961 15.8333C91.4961 15.0093 91.6952 14.2639 92.0933 13.5972C92.5007 12.9213 93.047 12.3843 93.7322 11.9861C94.4174 11.588 95.172 11.3889 95.9961 11.3889C96.8294 11.3889 97.5841 11.588 98.26 11.9861C98.9452 12.3843 99.4868 12.9213 99.885 13.5972C100.292 14.2639 100.496 15.0093 100.496 15.8333C100.496 16.6481 100.292 17.3935 99.885 18.0694C99.4868 18.7454 98.9452 19.2824 98.26 19.6806C97.5841 20.0787 96.8294 20.2778 95.9961 20.2778ZM95.9961 18.1111C96.4128 18.1111 96.7878 18.0093 97.1211 17.8056C97.4637 17.6019 97.7322 17.3287 97.9266 16.9861C98.1304 16.6343 98.2322 16.25 98.2322 15.8333C98.2322 15.4074 98.1304 15.0231 97.9266 14.6806C97.7322 14.338 97.4637 14.0648 97.1211 13.8611C96.7878 13.6574 96.4128 13.5556 95.9961 13.5556C95.5794 13.5556 95.1998 13.6574 94.8572 13.8611C94.5239 14.0648 94.2554 14.338 94.0516 14.6806C93.8572 15.0231 93.76 15.4074 93.76 15.8333C93.76 16.25 93.8572 16.6343 94.0516 16.9861C94.2554 17.3287 94.5239 17.6019 94.8572 17.8056C95.1998 18.0093 95.5794 18.1111 95.9961 18.1111ZM104.649 20.2778C104.084 20.2778 103.51 20.1852 102.927 20C102.353 19.8148 101.904 19.5648 101.579 19.25L102.177 16.9722C102.445 17.3426 102.816 17.6667 103.288 17.9444C103.769 18.2222 104.265 18.3611 104.774 18.3611C105.116 18.3611 105.362 18.2963 105.51 18.1667C105.667 18.037 105.746 17.8796 105.746 17.6944C105.746 17.4815 105.667 17.3287 105.51 17.2361C105.353 17.1343 105.191 17.0509 105.024 16.9861L103.857 16.5417C103.598 16.4398 103.302 16.3009 102.968 16.125C102.635 15.9491 102.343 15.6991 102.093 15.375C101.853 15.0509 101.732 14.625 101.732 14.0972C101.732 13.6157 101.853 13.1713 102.093 12.7639C102.334 12.3565 102.681 12.0278 103.135 11.7778C103.598 11.5185 104.154 11.3889 104.802 11.3889C105.404 11.3889 105.964 11.4907 106.482 11.6944C107.01 11.8981 107.394 12.125 107.635 12.375L107.079 14.5694C106.765 14.162 106.39 13.8519 105.954 13.6389C105.529 13.4167 105.121 13.3056 104.732 13.3056C104.436 13.3056 104.218 13.3657 104.079 13.4861C103.941 13.6065 103.871 13.7454 103.871 13.9028C103.871 14.0231 103.917 14.1435 104.01 14.2639C104.112 14.375 104.279 14.4769 104.51 14.5694L105.593 14.9722C105.908 15.0833 106.241 15.2315 106.593 15.4167C106.954 15.6019 107.26 15.8611 107.51 16.1944C107.76 16.5185 107.885 16.9676 107.885 17.5417C107.885 18.3472 107.584 19.0046 106.982 19.5139C106.39 20.0231 105.612 20.2778 104.649 20.2778Z" fill="#F6F2E6"/>
</svg>
