<svg width="314" height="27" viewBox="0 0 314 27" fill="none" xmlns="http://www.w3.org/2000/svg">
<rect x="255.23" y="4.91769" width="58.7434" height="17.7037" rx="5" fill="#F6F2E6"/>
<path d="M263.695 20V7.5H267.514C268.421 7.5 269.195 7.68056 269.833 8.04167C270.482 8.40278 270.977 8.88426 271.32 9.48611C271.662 10.0787 271.833 10.7315 271.833 11.4444C271.833 12.0926 271.69 12.6806 271.403 13.2083C271.125 13.7361 270.727 14.1713 270.208 14.5139L273.514 20H270.778L268 15.25H266.111V20H263.695ZM266.111 13.1667H267.458C267.912 13.1667 268.283 13.0833 268.57 12.9167C268.857 12.7407 269.07 12.5231 269.208 12.2639C269.347 11.9954 269.417 11.7222 269.417 11.4444C269.417 10.9537 269.236 10.5509 268.875 10.2361C268.514 9.91204 268.042 9.75 267.458 9.75H266.111V13.1667ZM280.384 20.25C279.467 20.25 278.611 20.0833 277.814 19.75C277.018 19.4074 276.314 18.9398 275.703 18.3472C275.101 17.7546 274.629 17.0648 274.287 16.2778C273.944 15.4907 273.773 14.6481 273.773 13.75C273.773 12.8519 273.944 12.0093 274.287 11.2222C274.629 10.4352 275.101 9.74537 275.703 9.15278C276.314 8.56018 277.018 8.09722 277.814 7.76389C278.611 7.4213 279.467 7.25 280.384 7.25C281.3 7.25 282.157 7.4213 282.953 7.76389C283.75 8.09722 284.449 8.56018 285.05 9.15278C285.662 9.74537 286.138 10.4352 286.481 11.2222C286.824 12.0093 286.995 12.8519 286.995 13.75C286.995 14.6481 286.824 15.4907 286.481 16.2778C286.138 17.0648 285.662 17.7546 285.05 18.3472C284.449 18.9398 283.75 19.4074 282.953 19.75C282.157 20.0833 281.3 20.25 280.384 20.25ZM280.384 17.8333C281.134 17.8333 281.81 17.6528 282.412 17.2917C283.013 16.9213 283.49 16.4259 283.842 15.8056C284.203 15.1852 284.384 14.5 284.384 13.75C284.384 12.9907 284.203 12.3056 283.842 11.6944C283.49 11.0741 283.013 10.5833 282.412 10.2222C281.81 9.85185 281.134 9.66667 280.384 9.66667C279.634 9.66667 278.953 9.85185 278.342 10.2222C277.74 10.5833 277.263 11.0741 276.912 11.6944C276.56 12.3056 276.384 12.9907 276.384 13.75C276.384 14.5 276.56 15.1852 276.912 15.8056C277.263 16.4259 277.74 16.9213 278.342 17.2917C278.953 17.6528 279.634 17.8333 280.384 17.8333ZM287.506 20L293.02 7.05556H293.047L298.561 20H296.047L295.117 17.7778H290.867L289.936 20H287.506ZM291.7 15.7778H294.284L293.742 14.5C293.594 14.1574 293.455 13.8287 293.325 13.5139C293.205 13.1898 293.089 12.8148 292.978 12.3889C292.876 12.8056 292.765 13.1759 292.645 13.5C292.524 13.8241 292.39 14.1574 292.242 14.5L291.7 15.7778ZM303.267 20.2778C302.508 20.2778 301.786 20.1389 301.101 19.8611C300.425 19.5741 299.883 19.2315 299.476 18.8333L300.156 16.0556C300.48 16.6204 300.939 17.0926 301.531 17.4722C302.124 17.8426 302.73 18.0278 303.351 18.0278C303.86 18.0278 304.258 17.8889 304.545 17.6111C304.842 17.3333 304.99 16.9954 304.99 16.5972C304.99 16.2731 304.911 16.0046 304.754 15.7917C304.605 15.5787 304.425 15.4028 304.212 15.2639C304.008 15.125 303.828 15.0185 303.67 14.9444L302.198 14.2083C301.772 13.9954 301.365 13.7454 300.976 13.4583C300.587 13.162 300.267 12.7963 300.017 12.3611C299.777 11.9259 299.656 11.3889 299.656 10.75C299.656 10.0463 299.814 9.43056 300.129 8.90278C300.453 8.375 300.906 7.96296 301.49 7.66667C302.073 7.37037 302.758 7.22222 303.545 7.22222C304.286 7.22222 304.943 7.34259 305.517 7.58333C306.101 7.81481 306.573 8.06481 306.934 8.33333L306.295 11.0417C305.925 10.5602 305.48 10.1759 304.962 9.88889C304.453 9.59259 303.943 9.44444 303.434 9.44444C302.98 9.44444 302.629 9.56018 302.379 9.79167C302.138 10.0231 302.017 10.3102 302.017 10.6528C302.017 10.8657 302.064 11.0556 302.156 11.2222C302.258 11.3889 302.402 11.537 302.587 11.6667C302.772 11.7963 302.99 11.9259 303.24 12.0556L304.726 12.7917C304.976 12.912 305.249 13.0694 305.545 13.2639C305.842 13.4491 306.129 13.6852 306.406 13.9722C306.684 14.2593 306.911 14.6065 307.087 15.0139C307.263 15.412 307.351 15.8889 307.351 16.4444C307.351 17.1667 307.184 17.8194 306.851 18.4028C306.517 18.9769 306.045 19.4352 305.434 19.7778C304.832 20.1111 304.11 20.2778 303.267 20.2778Z" fill="#3D5F7D"/>
<path d="M219.04 20.25C218.123 20.25 217.267 20.0833 216.47 19.75C215.674 19.4074 214.97 18.9398 214.359 18.3472C213.757 17.7546 213.285 17.0648 212.943 16.2778C212.6 15.4907 212.429 14.6481 212.429 13.75C212.429 12.8519 212.6 12.0093 212.943 11.2222C213.285 10.4352 213.757 9.74537 214.359 9.15278C214.97 8.56018 215.674 8.09722 216.47 7.76389C217.267 7.4213 218.123 7.25 219.04 7.25C219.864 7.25 220.642 7.38426 221.373 7.65278C222.105 7.9213 222.757 8.30093 223.331 8.79167L222.623 11.7083C222.281 11.1343 221.808 10.6528 221.206 10.2639C220.605 9.86574 219.91 9.66667 219.123 9.66667C218.373 9.66667 217.693 9.85185 217.081 10.2222C216.48 10.5833 216.003 11.0741 215.651 11.6944C215.299 12.3056 215.123 12.9907 215.123 13.75C215.123 14.5 215.299 15.1852 215.651 15.8056C216.003 16.4259 216.48 16.9213 217.081 17.2917C217.693 17.6528 218.373 17.8333 219.123 17.8333C219.901 17.8333 220.591 17.6389 221.193 17.25C221.804 16.8519 222.281 16.3657 222.623 15.7917L223.331 18.7083C222.748 19.1898 222.091 19.5694 221.359 19.8472C220.637 20.1157 219.864 20.25 219.04 20.25ZM223.935 20L229.449 7.05556H229.477L234.991 20H232.477L231.546 17.7778H227.296L226.366 20H223.935ZM228.13 15.7778H230.713L230.171 14.5C230.023 14.1574 229.884 13.8287 229.755 13.5139C229.634 13.1898 229.519 12.8148 229.407 12.3889C229.306 12.8056 229.194 13.1759 229.074 13.5C228.954 13.8241 228.819 14.1574 228.671 14.5L228.13 15.7778ZM242.106 20.25C241.19 20.25 240.333 20.0833 239.537 19.75C238.74 19.4074 238.037 18.9398 237.426 18.3472C236.824 17.7546 236.352 17.0648 236.009 16.2778C235.666 15.4907 235.495 14.6481 235.495 13.75C235.495 12.8519 235.666 12.0093 236.009 11.2222C236.352 10.4352 236.824 9.74537 237.426 9.15278C238.037 8.56018 238.74 8.09722 239.537 7.76389C240.333 7.4213 241.19 7.25 242.106 7.25C242.93 7.25 243.708 7.38426 244.44 7.65278C245.171 7.9213 245.824 8.30093 246.398 8.79167L245.69 11.7083C245.347 11.1343 244.875 10.6528 244.273 10.2639C243.671 9.86574 242.977 9.66667 242.19 9.66667C241.44 9.66667 240.759 9.85185 240.148 10.2222C239.546 10.5833 239.069 11.0741 238.717 11.6944C238.365 12.3056 238.19 12.9907 238.19 13.75C238.19 14.5 238.365 15.1852 238.717 15.8056C239.069 16.4259 239.546 16.9213 240.148 17.2917C240.759 17.6528 241.44 17.8333 242.19 17.8333C242.967 17.8333 243.657 17.6389 244.259 17.25C244.87 16.8519 245.347 16.3657 245.69 15.7917L246.398 18.7083C245.815 19.1898 245.157 19.5694 244.426 19.8472C243.703 20.1157 242.93 20.25 242.106 20.25Z" fill="#F6F2E6"/>
<path d="M133.041 20V7.5H136.861C137.768 7.5 138.541 7.68056 139.18 8.04167C139.828 8.40278 140.324 8.88426 140.666 9.48611C141.009 10.0787 141.18 10.7315 141.18 11.4444C141.18 12.0926 141.037 12.6806 140.75 13.2083C140.472 13.7361 140.074 14.1713 139.555 14.5139L142.861 20H140.125L137.347 15.25H135.458V20H133.041ZM135.458 13.1667H136.805C137.259 13.1667 137.629 13.0833 137.916 12.9167C138.203 12.7407 138.416 12.5231 138.555 12.2639C138.694 11.9954 138.763 11.7222 138.763 11.4444C138.763 10.9537 138.583 10.5509 138.222 10.2361C137.861 9.91204 137.388 9.75 136.805 9.75H135.458V13.1667ZM147.469 20.2778C146.534 20.2778 145.71 20.0833 144.997 19.6944C144.284 19.3056 143.728 18.7731 143.33 18.0972C142.932 17.412 142.733 16.6296 142.733 15.75C142.733 14.9074 142.927 14.162 143.316 13.5139C143.705 12.8565 144.228 12.338 144.885 11.9583C145.552 11.5787 146.288 11.3889 147.094 11.3889C147.918 11.3889 148.654 11.5787 149.302 11.9583C149.95 12.3287 150.46 12.838 150.83 13.4861C151.21 14.1343 151.399 14.8704 151.399 15.6944V16.5417H146.316C146.085 16.5417 145.862 16.5278 145.649 16.5C145.436 16.4722 145.223 16.4398 145.01 16.4028C145.122 16.9583 145.395 17.412 145.83 17.7639C146.274 18.1065 146.839 18.2778 147.524 18.2778C148.052 18.2778 148.524 18.1713 148.941 17.9583C149.367 17.7454 149.714 17.4815 149.983 17.1667L150.51 19.3333C150.094 19.6481 149.622 19.8843 149.094 20.0417C148.575 20.1991 148.034 20.2778 147.469 20.2778ZM144.955 14.9444C145.418 14.8426 145.872 14.7917 146.316 14.7917H147.788C148.047 14.7917 148.293 14.8009 148.524 14.8194C148.756 14.838 148.973 14.8704 149.177 14.9167C149.038 14.4167 148.784 14.0231 148.413 13.7361C148.052 13.4491 147.603 13.3056 147.066 13.3056C146.557 13.3056 146.112 13.4537 145.733 13.75C145.362 14.037 145.103 14.4352 144.955 14.9444ZM153.711 20V13.5833H152.156V11.6667H153.753V8.88889H156.086V11.6667H157.739V13.5833H156.128V20H153.711ZM162.662 20.2778C161.838 20.2778 161.084 20.0787 160.398 19.6806C159.713 19.2824 159.167 18.7454 158.76 18.0694C158.361 17.3935 158.162 16.6481 158.162 15.8333C158.162 15.0093 158.361 14.2639 158.76 13.5972C159.167 12.9213 159.713 12.3843 160.398 11.9861C161.084 11.588 161.838 11.3889 162.662 11.3889C163.496 11.3889 164.25 11.588 164.926 11.9861C165.611 12.3843 166.153 12.9213 166.551 13.5972C166.959 14.2639 167.162 15.0093 167.162 15.8333C167.162 16.6481 166.959 17.3935 166.551 18.0694C166.153 18.7454 165.611 19.2824 164.926 19.6806C164.25 20.0787 163.496 20.2778 162.662 20.2778ZM162.662 18.1111C163.079 18.1111 163.454 18.0093 163.787 17.8056C164.13 17.6019 164.398 17.3287 164.593 16.9861C164.797 16.6343 164.898 16.25 164.898 15.8333C164.898 15.4074 164.797 15.0231 164.593 14.6806C164.398 14.338 164.13 14.0648 163.787 13.8611C163.454 13.6574 163.079 13.5556 162.662 13.5556C162.246 13.5556 161.866 13.6574 161.523 13.8611C161.19 14.0648 160.922 14.338 160.718 14.6806C160.523 15.0231 160.426 15.4074 160.426 15.8333C160.426 16.25 160.523 16.6343 160.718 16.9861C160.922 17.3287 161.19 17.6019 161.523 17.8056C161.866 18.0093 162.246 18.1111 162.662 18.1111ZM168.579 20V11.6667H170.746V13.0972C171.033 12.6157 171.394 12.2454 171.829 11.9861C172.273 11.7176 172.792 11.5833 173.385 11.5833L173.912 13.7222C173.736 13.6667 173.537 13.6389 173.315 13.6389C172.621 13.6389 172.061 13.8657 171.635 14.3194C171.209 14.7639 170.996 15.4028 170.996 16.2361V20H168.579ZM174.966 20V11.6667H177.132V12.5833C177.429 12.1944 177.794 11.8981 178.23 11.6944C178.665 11.4907 179.132 11.3889 179.632 11.3889C180.225 11.3889 180.776 11.5324 181.285 11.8194C181.804 12.0972 182.22 12.5093 182.535 13.0556C182.859 13.5926 183.021 14.2454 183.021 15.0139V20H180.605V15.3333C180.605 14.8704 180.466 14.4583 180.188 14.0972C179.91 13.7361 179.512 13.5556 178.994 13.5556C178.577 13.5556 178.202 13.6991 177.869 13.9861C177.544 14.2639 177.382 14.7037 177.382 15.3056V20H174.966ZM188.776 20.2778C187.952 20.2778 187.197 20.0787 186.512 19.6806C185.827 19.2824 185.28 18.7454 184.873 18.0694C184.475 17.3935 184.276 16.6481 184.276 15.8333C184.276 15.0093 184.475 14.2639 184.873 13.5972C185.28 12.9213 185.827 12.3843 186.512 11.9861C187.197 11.588 187.952 11.3889 188.776 11.3889C189.609 11.3889 190.364 11.588 191.04 11.9861C191.725 12.3843 192.266 12.9213 192.665 13.5972C193.072 14.2639 193.276 15.0093 193.276 15.8333C193.276 16.6481 193.072 17.3935 192.665 18.0694C192.266 18.7454 191.725 19.2824 191.04 19.6806C190.364 20.0787 189.609 20.2778 188.776 20.2778ZM188.776 18.1111C189.192 18.1111 189.567 18.0093 189.901 17.8056C190.243 17.6019 190.512 17.3287 190.706 16.9861C190.91 16.6343 191.012 16.25 191.012 15.8333C191.012 15.4074 190.91 15.0231 190.706 14.6806C190.512 14.338 190.243 14.0648 189.901 13.8611C189.567 13.6574 189.192 13.5556 188.776 13.5556C188.359 13.5556 187.979 13.6574 187.637 13.8611C187.303 14.0648 187.035 14.338 186.831 14.6806C186.637 15.0231 186.54 15.4074 186.54 15.8333C186.54 16.25 186.637 16.6343 186.831 16.9861C187.035 17.3287 187.303 17.6019 187.637 17.8056C187.979 18.0093 188.359 18.1111 188.776 18.1111Z" fill="#F6F2E6"/>
<path d="M1.41667 20V7.5H4V20H1.41667ZM6.32682 20V11.6667H8.49349V12.5833C8.78979 12.1944 9.15553 11.8981 9.59071 11.6944C10.0259 11.4907 10.4935 11.3889 10.9935 11.3889C11.5861 11.3889 12.137 11.5324 12.6463 11.8194C13.1648 12.0972 13.5815 12.5093 13.8963 13.0556C14.2203 13.5926 14.3824 14.2454 14.3824 15.0139V20H11.9657V15.3333C11.9657 14.8704 11.8268 14.4583 11.549 14.0972C11.2713 13.7361 10.8731 13.5556 10.3546 13.5556C9.93793 13.5556 9.56293 13.6991 9.2296 13.9861C8.90553 14.2639 8.74349 14.7037 8.74349 15.3056V20H6.32682ZM19.3793 20.4167L14.8099 11.6667H17.4905L18.796 14.3472C18.9164 14.5787 19.0275 14.8102 19.1293 15.0417C19.2312 15.2639 19.333 15.5185 19.4349 15.8056C19.5367 15.5185 19.6386 15.2639 19.7405 15.0417C19.8423 14.8102 19.9534 14.5787 20.0738 14.3472L21.3793 11.6667H23.9488L19.3793 20.4167ZM28.8494 20.2778C27.9142 20.2778 27.0901 20.0833 26.3772 19.6944C25.6642 19.3056 25.1087 18.7731 24.7105 18.0972C24.3124 17.412 24.1133 16.6296 24.1133 15.75C24.1133 14.9074 24.3077 14.162 24.6966 13.5139C25.0855 12.8565 25.6087 12.338 26.2661 11.9583C26.9327 11.5787 27.6688 11.3889 28.4744 11.3889C29.2985 11.3889 30.0346 11.5787 30.6827 11.9583C31.3309 12.3287 31.8401 12.838 32.2105 13.4861C32.5901 14.1343 32.7799 14.8704 32.7799 15.6944V16.5417H27.6966C27.4651 16.5417 27.2429 16.5278 27.0299 16.5C26.817 16.4722 26.604 16.4398 26.3911 16.4028C26.5022 16.9583 26.7753 17.412 27.2105 17.7639C27.6549 18.1065 28.2198 18.2778 28.9049 18.2778C29.4327 18.2778 29.9049 18.1713 30.3216 17.9583C30.7475 17.7454 31.0948 17.4815 31.3633 17.1667L31.8911 19.3333C31.4744 19.6481 31.0022 19.8843 30.4744 20.0417C29.9559 20.1991 29.4142 20.2778 28.8494 20.2778ZM26.3355 14.9444C26.7985 14.8426 27.2522 14.7917 27.6966 14.7917H29.1688C29.4281 14.7917 29.6735 14.8009 29.9049 14.8194C30.1364 14.838 30.354 14.8704 30.5577 14.9167C30.4188 14.4167 30.1642 14.0231 29.7938 13.7361C29.4327 13.4491 28.9837 13.3056 28.4466 13.3056C27.9374 13.3056 27.4929 13.4537 27.1133 13.75C26.7429 14.037 26.4837 14.4352 26.3355 14.9444ZM36.8559 20.2778C36.2911 20.2778 35.717 20.1852 35.1337 20C34.5596 19.8148 34.1105 19.5648 33.7865 19.25L34.3837 16.9722C34.6522 17.3426 35.0226 17.6667 35.4948 17.9444C35.9763 18.2222 36.4716 18.3611 36.9809 18.3611C37.3235 18.3611 37.5689 18.2963 37.717 18.1667C37.8744 18.037 37.9531 17.8796 37.9531 17.6944C37.9531 17.4815 37.8744 17.3287 37.717 17.2361C37.5596 17.1343 37.3976 17.0509 37.2309 16.9861L36.0642 16.5417C35.805 16.4398 35.5087 16.3009 35.1753 16.125C34.842 15.9491 34.5503 15.6991 34.3003 15.375C34.0596 15.0509 33.9392 14.625 33.9392 14.0972C33.9392 13.6157 34.0596 13.1713 34.3003 12.7639C34.5411 12.3565 34.8883 12.0278 35.342 11.7778C35.805 11.5185 36.3605 11.3889 37.0087 11.3889C37.6105 11.3889 38.1707 11.4907 38.6892 11.6944C39.217 11.8981 39.6013 12.125 39.842 12.375L39.2865 14.5694C38.9716 14.162 38.5966 13.8519 38.1615 13.6389C37.7355 13.4167 37.3281 13.3056 36.9392 13.3056C36.6429 13.3056 36.4253 13.3657 36.2865 13.4861C36.1476 13.6065 36.0781 13.7454 36.0781 13.9028C36.0781 14.0231 36.1244 14.1435 36.217 14.2639C36.3189 14.375 36.4855 14.4769 36.717 14.5694L37.8003 14.9722C38.1152 15.0833 38.4485 15.2315 38.8003 15.4167C39.1615 15.6019 39.467 15.8611 39.717 16.1944C39.967 16.5185 40.092 16.9676 40.092 17.5417C40.092 18.3472 39.7911 19.0046 39.1892 19.5139C38.5966 20.0231 37.8189 20.2778 36.8559 20.2778ZM42.4553 20V13.5833H40.8997V11.6667H42.497V8.88889H44.8303V11.6667H46.4831V13.5833H44.872V20H42.4553ZM47.7609 20V11.6667H50.1775V20H47.7609ZM48.9692 10.4583C48.6081 10.4583 48.3025 10.3333 48.0525 10.0833C47.8025 9.83333 47.6775 9.52778 47.6775 9.16667C47.6775 8.7963 47.8025 8.49074 48.0525 8.25C48.3025 8 48.6081 7.875 48.9692 7.875C49.3396 7.875 49.6451 8 49.8859 8.25C50.1359 8.49074 50.2609 8.7963 50.2609 9.16667C50.2609 9.52778 50.1359 9.83333 49.8859 10.0833C49.6451 10.3333 49.3396 10.4583 48.9692 10.4583ZM52.0299 20V11.6667H54.1966V12.5833C54.4929 12.1944 54.8587 11.8981 55.2938 11.6944C55.7383 11.4907 56.2012 11.3889 56.6827 11.3889C57.1735 11.3889 57.6364 11.4907 58.0716 11.6944C58.5068 11.8981 58.8725 12.1944 59.1688 12.5833C59.4929 12.1944 59.8957 11.8981 60.3772 11.6944C60.8587 11.4907 61.3818 11.3889 61.9466 11.3889C62.5392 11.3889 63.0948 11.5278 63.6133 11.8056C64.1318 12.0741 64.5531 12.4722 64.8772 13C65.2012 13.5185 65.3633 14.1528 65.3633 14.9028V20H62.9466V15.25C62.9466 14.8056 62.817 14.412 62.5577 14.0694C62.2985 13.7269 61.9235 13.5556 61.4327 13.5556C61.1735 13.5556 60.9235 13.6204 60.6827 13.75C60.4512 13.8704 60.2614 14.0556 60.1133 14.3056C59.9744 14.5463 59.9049 14.8519 59.9049 15.2222V20H57.4883V15.25C57.4883 14.9537 57.4281 14.6759 57.3077 14.4167C57.1966 14.1574 57.0253 13.9491 56.7938 13.7917C56.5716 13.6343 56.2985 13.5556 55.9744 13.5556C55.7151 13.5556 55.4651 13.6204 55.2244 13.75C54.9929 13.8704 54.8031 14.0556 54.6549 14.3056C54.5161 14.5463 54.4466 14.8519 54.4466 15.2222V20H52.0299ZM71.3494 20.2778C70.4142 20.2778 69.5901 20.0833 68.8772 19.6944C68.1642 19.3056 67.6087 18.7731 67.2105 18.0972C66.8124 17.412 66.6133 16.6296 66.6133 15.75C66.6133 14.9074 66.8077 14.162 67.1966 13.5139C67.5855 12.8565 68.1087 12.338 68.7661 11.9583C69.4327 11.5787 70.1688 11.3889 70.9744 11.3889C71.7985 11.3889 72.5346 11.5787 73.1827 11.9583C73.8309 12.3287 74.3401 12.838 74.7105 13.4861C75.0901 14.1343 75.2799 14.8704 75.2799 15.6944V16.5417H70.1966C69.9651 16.5417 69.7429 16.5278 69.5299 16.5C69.317 16.4722 69.104 16.4398 68.8911 16.4028C69.0022 16.9583 69.2753 17.412 69.7105 17.7639C70.1549 18.1065 70.7198 18.2778 71.4049 18.2778C71.9327 18.2778 72.4049 18.1713 72.8216 17.9583C73.2475 17.7454 73.5948 17.4815 73.8633 17.1667L74.3911 19.3333C73.9744 19.6481 73.5022 19.8843 72.9744 20.0417C72.4559 20.1991 71.9142 20.2778 71.3494 20.2778ZM68.8355 14.9444C69.2985 14.8426 69.7522 14.7917 70.1966 14.7917H71.6688C71.9281 14.7917 72.1735 14.8009 72.4049 14.8194C72.6364 14.838 72.854 14.8704 73.0577 14.9167C72.9188 14.4167 72.6642 14.0231 72.2938 13.7361C71.9327 13.4491 71.4837 13.3056 70.9466 13.3056C70.4374 13.3056 69.9929 13.4537 69.6133 13.75C69.2429 14.037 68.9837 14.4352 68.8355 14.9444ZM76.6198 20V11.6667H78.7865V12.5833C79.0828 12.1944 79.4485 11.8981 79.8837 11.6944C80.3189 11.4907 80.7865 11.3889 81.2865 11.3889C81.8791 11.3889 82.43 11.5324 82.9392 11.8194C83.4578 12.0972 83.8744 12.5093 84.1892 13.0556C84.5133 13.5926 84.6753 14.2454 84.6753 15.0139V20H82.2587V15.3333C82.2587 14.8704 82.1198 14.4583 81.842 14.0972C81.5642 13.7361 81.1661 13.5556 80.6476 13.5556C80.2309 13.5556 79.8559 13.6991 79.5226 13.9861C79.1985 14.2639 79.0365 14.7037 79.0365 15.3056V20H76.6198ZM87.0451 20V13.5833H85.4896V11.6667H87.0868V8.88889H89.4201V11.6667H91.0729V13.5833H89.4618V20H87.0451ZM95.9961 20.2778C95.172 20.2778 94.4174 20.0787 93.7322 19.6806C93.047 19.2824 92.5007 18.7454 92.0933 18.0694C91.6952 17.3935 91.4961 16.6481 91.4961 15.8333C91.4961 15.0093 91.6952 14.2639 92.0933 13.5972C92.5007 12.9213 93.047 12.3843 93.7322 11.9861C94.4174 11.588 95.172 11.3889 95.9961 11.3889C96.8294 11.3889 97.5841 11.588 98.26 11.9861C98.9452 12.3843 99.4868 12.9213 99.885 13.5972C100.292 14.2639 100.496 15.0093 100.496 15.8333C100.496 16.6481 100.292 17.3935 99.885 18.0694C99.4868 18.7454 98.9452 19.2824 98.26 19.6806C97.5841 20.0787 96.8294 20.2778 95.9961 20.2778ZM95.9961 18.1111C96.4128 18.1111 96.7878 18.0093 97.1211 17.8056C97.4637 17.6019 97.7322 17.3287 97.9266 16.9861C98.1304 16.6343 98.2322 16.25 98.2322 15.8333C98.2322 15.4074 98.1304 15.0231 97.9266 14.6806C97.7322 14.338 97.4637 14.0648 97.1211 13.8611C96.7878 13.6574 96.4128 13.5556 95.9961 13.5556C95.5794 13.5556 95.1998 13.6574 94.8572 13.8611C94.5239 14.0648 94.2554 14.338 94.0516 14.6806C93.8572 15.0231 93.76 15.4074 93.76 15.8333C93.76 16.25 93.8572 16.6343 94.0516 16.9861C94.2554 17.3287 94.5239 17.6019 94.8572 17.8056C95.1998 18.0093 95.5794 18.1111 95.9961 18.1111ZM104.649 20.2778C104.084 20.2778 103.51 20.1852 102.927 20C102.353 19.8148 101.904 19.5648 101.579 19.25L102.177 16.9722C102.445 17.3426 102.816 17.6667 103.288 17.9444C103.769 18.2222 104.265 18.3611 104.774 18.3611C105.116 18.3611 105.362 18.2963 105.51 18.1667C105.667 18.037 105.746 17.8796 105.746 17.6944C105.746 17.4815 105.667 17.3287 105.51 17.2361C105.353 17.1343 105.191 17.0509 105.024 16.9861L103.857 16.5417C103.598 16.4398 103.302 16.3009 102.968 16.125C102.635 15.9491 102.343 15.6991 102.093 15.375C101.853 15.0509 101.732 14.625 101.732 14.0972C101.732 13.6157 101.853 13.1713 102.093 12.7639C102.334 12.3565 102.681 12.0278 103.135 11.7778C103.598 11.5185 104.154 11.3889 104.802 11.3889C105.404 11.3889 105.964 11.4907 106.482 11.6944C107.01 11.8981 107.394 12.125 107.635 12.375L107.079 14.5694C106.765 14.162 106.39 13.8519 105.954 13.6389C105.529 13.4167 105.121 13.3056 104.732 13.3056C104.436 13.3056 104.218 13.3657 104.079 13.4861C103.941 13.6065 103.871 13.7454 103.871 13.9028C103.871 14.0231 103.917 14.1435 104.01 14.2639C104.112 14.375 104.279 14.4769 104.51 14.5694L105.593 14.9722C105.908 15.0833 106.241 15.2315 106.593 15.4167C106.954 15.6019 107.26 15.8611 107.51 16.1944C107.76 16.5185 107.885 16.9676 107.885 17.5417C107.885 18.3472 107.584 19.0046 106.982 19.5139C106.39 20.0231 105.612 20.2778 104.649 20.2778Z" fill="#F6F2E6"/>
</svg>
