<svg width="314" height="27" viewBox="0 0 314 27" fill="none" xmlns="http://www.w3.org/2000/svg">
<rect y="4.91769" width="122.772" height="17.7037" rx="5" fill="#F6F2E6"/>
<path d="M269.057 20V7.5H272.877C273.784 7.5 274.557 7.68056 275.196 8.04167C275.844 8.40278 276.34 8.88426 276.682 9.48611C277.025 10.0787 277.196 10.7315 277.196 11.4444C277.196 12.0926 277.053 12.6806 276.766 13.2083C276.488 13.7361 276.09 14.1713 275.571 14.5139L278.877 20H276.141L273.363 15.25H271.474V20H269.057ZM271.474 13.1667H272.821C273.275 13.1667 273.645 13.0833 273.932 12.9167C274.219 12.7407 274.432 12.5231 274.571 12.2639C274.71 11.9954 274.779 11.7222 274.779 11.4444C274.779 10.9537 274.599 10.5509 274.238 10.2361C273.877 9.91204 273.404 9.75 272.821 9.75H271.474V13.1667ZM285.746 20.25C284.83 20.25 283.973 20.0833 283.177 19.75C282.381 19.4074 281.677 18.9398 281.066 18.3472C280.464 17.7546 279.992 17.0648 279.649 16.2778C279.307 15.4907 279.135 14.6481 279.135 13.75C279.135 12.8519 279.307 12.0093 279.649 11.2222C279.992 10.4352 280.464 9.74537 281.066 9.15278C281.677 8.56018 282.381 8.09722 283.177 7.76389C283.973 7.4213 284.83 7.25 285.746 7.25C286.663 7.25 287.52 7.4213 288.316 7.76389C289.112 8.09722 289.811 8.56018 290.413 9.15278C291.024 9.74537 291.501 10.4352 291.844 11.2222C292.186 12.0093 292.358 12.8519 292.358 13.75C292.358 14.6481 292.186 15.4907 291.844 16.2778C291.501 17.0648 291.024 17.7546 290.413 18.3472C289.811 18.9398 289.112 19.4074 288.316 19.75C287.52 20.0833 286.663 20.25 285.746 20.25ZM285.746 17.8333C286.496 17.8333 287.172 17.6528 287.774 17.2917C288.376 16.9213 288.853 16.4259 289.205 15.8056C289.566 15.1852 289.746 14.5 289.746 13.75C289.746 12.9907 289.566 12.3056 289.205 11.6944C288.853 11.0741 288.376 10.5833 287.774 10.2222C287.172 9.85185 286.496 9.66667 285.746 9.66667C284.996 9.66667 284.316 9.85185 283.705 10.2222C283.103 10.5833 282.626 11.0741 282.274 11.6944C281.922 12.3056 281.746 12.9907 281.746 13.75C281.746 14.5 281.922 15.1852 282.274 15.8056C282.626 16.4259 283.103 16.9213 283.705 17.2917C284.316 17.6528 284.996 17.8333 285.746 17.8333ZM292.868 20L298.382 7.05556H298.41L303.924 20H301.41L300.48 17.7778H296.23L295.299 20H292.868ZM297.063 15.7778H299.646L299.105 14.5C298.956 14.1574 298.818 13.8287 298.688 13.5139C298.568 13.1898 298.452 12.8148 298.341 12.3889C298.239 12.8056 298.128 13.1759 298.007 13.5C297.887 13.8241 297.753 14.1574 297.605 14.5L297.063 15.7778ZM308.63 20.2778C307.871 20.2778 307.149 20.1389 306.464 19.8611C305.788 19.5741 305.246 19.2315 304.839 18.8333L305.519 16.0556C305.843 16.6204 306.301 17.0926 306.894 17.4722C307.487 17.8426 308.093 18.0278 308.714 18.0278C309.223 18.0278 309.621 17.8889 309.908 17.6111C310.204 17.3333 310.352 16.9954 310.352 16.5972C310.352 16.2731 310.274 16.0046 310.116 15.7917C309.968 15.5787 309.788 15.4028 309.575 15.2639C309.371 15.125 309.19 15.0185 309.033 14.9444L307.561 14.2083C307.135 13.9954 306.727 13.7454 306.339 13.4583C305.95 13.162 305.63 12.7963 305.38 12.3611C305.139 11.9259 305.019 11.3889 305.019 10.75C305.019 10.0463 305.176 9.43056 305.491 8.90278C305.815 8.375 306.269 7.96296 306.852 7.66667C307.436 7.37037 308.121 7.22222 308.908 7.22222C309.649 7.22222 310.306 7.34259 310.88 7.58333C311.464 7.81481 311.936 8.06481 312.297 8.33333L311.658 11.0417C311.288 10.5602 310.843 10.1759 310.325 9.88889C309.815 9.59259 309.306 9.44444 308.797 9.44444C308.343 9.44444 307.991 9.56018 307.741 9.79167C307.501 10.0231 307.38 10.3102 307.38 10.6528C307.38 10.8657 307.426 11.0556 307.519 11.2222C307.621 11.3889 307.764 11.537 307.95 11.6667C308.135 11.7963 308.352 11.9259 308.602 12.0556L310.089 12.7917C310.339 12.912 310.612 13.0694 310.908 13.2639C311.204 13.4491 311.491 13.6852 311.769 13.9722C312.047 14.2593 312.274 14.6065 312.45 15.0139C312.626 15.412 312.714 15.8889 312.714 16.4444C312.714 17.1667 312.547 17.8194 312.214 18.4028C311.88 18.9769 311.408 19.4352 310.797 19.7778C310.195 20.1111 309.473 20.2778 308.63 20.2778Z" fill="#F6F2E6"/>
<path d="M224.727 20.25C223.811 20.25 222.954 20.0833 222.158 19.75C221.361 19.4074 220.658 18.9398 220.047 18.3472C219.445 17.7546 218.973 17.0648 218.63 16.2778C218.287 15.4907 218.116 14.6481 218.116 13.75C218.116 12.8519 218.287 12.0093 218.63 11.2222C218.973 10.4352 219.445 9.74537 220.047 9.15278C220.658 8.56018 221.361 8.09722 222.158 7.76389C222.954 7.4213 223.811 7.25 224.727 7.25C225.551 7.25 226.329 7.38426 227.061 7.65278C227.792 7.9213 228.445 8.30093 229.019 8.79167L228.311 11.7083C227.968 11.1343 227.496 10.6528 226.894 10.2639C226.292 9.86574 225.598 9.66667 224.811 9.66667C224.061 9.66667 223.38 9.85185 222.769 10.2222C222.167 10.5833 221.69 11.0741 221.338 11.6944C220.986 12.3056 220.811 12.9907 220.811 13.75C220.811 14.5 220.986 15.1852 221.338 15.8056C221.69 16.4259 222.167 16.9213 222.769 17.2917C223.38 17.6528 224.061 17.8333 224.811 17.8333C225.588 17.8333 226.278 17.6389 226.88 17.25C227.491 16.8519 227.968 16.3657 228.311 15.7917L229.019 18.7083C228.436 19.1898 227.778 19.5694 227.047 19.8472C226.324 20.1157 225.551 20.25 224.727 20.25ZM229.623 20L235.136 7.05556H235.164L240.678 20H238.164L237.234 17.7778H232.984L232.053 20H229.623ZM233.817 15.7778H236.4L235.859 14.5C235.711 14.1574 235.572 13.8287 235.442 13.5139C235.322 13.1898 235.206 12.8148 235.095 12.3889C234.993 12.8056 234.882 13.1759 234.761 13.5C234.641 13.8241 234.507 14.1574 234.359 14.5L233.817 15.7778ZM247.794 20.25C246.877 20.25 246.02 20.0833 245.224 19.75C244.428 19.4074 243.724 18.9398 243.113 18.3472C242.511 17.7546 242.039 17.0648 241.696 16.2778C241.354 15.4907 241.182 14.6481 241.182 13.75C241.182 12.8519 241.354 12.0093 241.696 11.2222C242.039 10.4352 242.511 9.74537 243.113 9.15278C243.724 8.56018 244.428 8.09722 245.224 7.76389C246.02 7.4213 246.877 7.25 247.794 7.25C248.618 7.25 249.395 7.38426 250.127 7.65278C250.858 7.9213 251.511 8.30093 252.085 8.79167L251.377 11.7083C251.034 11.1343 250.562 10.6528 249.96 10.2639C249.358 9.86574 248.664 9.66667 247.877 9.66667C247.127 9.66667 246.446 9.85185 245.835 10.2222C245.233 10.5833 244.757 11.0741 244.405 11.6944C244.053 12.3056 243.877 12.9907 243.877 13.75C243.877 14.5 244.053 15.1852 244.405 15.8056C244.757 16.4259 245.233 16.9213 245.835 17.2917C246.446 17.6528 247.127 17.8333 247.877 17.8333C248.655 17.8333 249.345 17.6389 249.946 17.25C250.557 16.8519 251.034 16.3657 251.377 15.7917L252.085 18.7083C251.502 19.1898 250.845 19.5694 250.113 19.8472C249.391 20.1157 248.618 20.25 247.794 20.25Z" fill="#F6F2E6"/>
<path d="M139.241 20V7.5H143.061C143.968 7.5 144.741 7.68056 145.38 8.04167C146.028 8.40278 146.524 8.88426 146.866 9.48611C147.209 10.0787 147.38 10.7315 147.38 11.4444C147.38 12.0926 147.237 12.6806 146.95 13.2083C146.672 13.7361 146.274 14.1713 145.755 14.5139L149.061 20H146.325L143.547 15.25H141.658V20H139.241ZM141.658 13.1667H143.005C143.459 13.1667 143.829 13.0833 144.116 12.9167C144.403 12.7407 144.616 12.5231 144.755 12.2639C144.894 11.9954 144.964 11.7222 144.964 11.4444C144.964 10.9537 144.783 10.5509 144.422 10.2361C144.061 9.91204 143.589 9.75 143.005 9.75H141.658V13.1667ZM153.669 20.2778C152.734 20.2778 151.91 20.0833 151.197 19.6944C150.484 19.3056 149.928 18.7731 149.53 18.0972C149.132 17.412 148.933 16.6296 148.933 15.75C148.933 14.9074 149.127 14.162 149.516 13.5139C149.905 12.8565 150.428 12.338 151.086 11.9583C151.752 11.5787 152.488 11.3889 153.294 11.3889C154.118 11.3889 154.854 11.5787 155.502 11.9583C156.15 12.3287 156.66 12.838 157.03 13.4861C157.41 14.1343 157.6 14.8704 157.6 15.6944V16.5417H152.516C152.285 16.5417 152.062 16.5278 151.85 16.5C151.637 16.4722 151.424 16.4398 151.211 16.4028C151.322 16.9583 151.595 17.412 152.03 17.7639C152.475 18.1065 153.039 18.2778 153.725 18.2778C154.252 18.2778 154.725 18.1713 155.141 17.9583C155.567 17.7454 155.914 17.4815 156.183 17.1667L156.711 19.3333C156.294 19.6481 155.822 19.8843 155.294 20.0417C154.775 20.1991 154.234 20.2778 153.669 20.2778ZM151.155 14.9444C151.618 14.8426 152.072 14.7917 152.516 14.7917H153.988C154.248 14.7917 154.493 14.8009 154.725 14.8194C154.956 14.838 155.174 14.8704 155.377 14.9167C155.238 14.4167 154.984 14.0231 154.613 13.7361C154.252 13.4491 153.803 13.3056 153.266 13.3056C152.757 13.3056 152.312 13.4537 151.933 13.75C151.562 14.037 151.303 14.4352 151.155 14.9444ZM159.912 20V13.5833H158.356V11.6667H159.953V8.88889H162.287V11.6667H163.939V13.5833H162.328V20H159.912ZM168.863 20.2778C168.038 20.2778 167.284 20.0787 166.599 19.6806C165.913 19.2824 165.367 18.7454 164.96 18.0694C164.562 17.3935 164.363 16.6481 164.363 15.8333C164.363 15.0093 164.562 14.2639 164.96 13.5972C165.367 12.9213 165.913 12.3843 166.599 11.9861C167.284 11.588 168.038 11.3889 168.863 11.3889C169.696 11.3889 170.451 11.588 171.126 11.9861C171.812 12.3843 172.353 12.9213 172.751 13.5972C173.159 14.2639 173.363 15.0093 173.363 15.8333C173.363 16.6481 173.159 17.3935 172.751 18.0694C172.353 18.7454 171.812 19.2824 171.126 19.6806C170.451 20.0787 169.696 20.2778 168.863 20.2778ZM168.863 18.1111C169.279 18.1111 169.654 18.0093 169.988 17.8056C170.33 17.6019 170.599 17.3287 170.793 16.9861C170.997 16.6343 171.099 16.25 171.099 15.8333C171.099 15.4074 170.997 15.0231 170.793 14.6806C170.599 14.338 170.33 14.0648 169.988 13.8611C169.654 13.6574 169.279 13.5556 168.863 13.5556C168.446 13.5556 168.066 13.6574 167.724 13.8611C167.39 14.0648 167.122 14.338 166.918 14.6806C166.724 15.0231 166.626 15.4074 166.626 15.8333C166.626 16.25 166.724 16.6343 166.918 16.9861C167.122 17.3287 167.39 17.6019 167.724 17.8056C168.066 18.0093 168.446 18.1111 168.863 18.1111ZM174.779 20V11.6667H176.946V13.0972C177.233 12.6157 177.594 12.2454 178.029 11.9861C178.474 11.7176 178.992 11.5833 179.585 11.5833L180.113 13.7222C179.937 13.6667 179.738 13.6389 179.515 13.6389C178.821 13.6389 178.261 13.8657 177.835 14.3194C177.409 14.7639 177.196 15.4028 177.196 16.2361V20H174.779ZM181.166 20V11.6667H183.333V12.5833C183.629 12.1944 183.995 11.8981 184.43 11.6944C184.865 11.4907 185.333 11.3889 185.833 11.3889C186.425 11.3889 186.976 11.5324 187.485 11.8194C188.004 12.0972 188.421 12.5093 188.735 13.0556C189.059 13.5926 189.221 14.2454 189.221 15.0139V20H186.805V15.3333C186.805 14.8704 186.666 14.4583 186.388 14.0972C186.11 13.7361 185.712 13.5556 185.194 13.5556C184.777 13.5556 184.402 13.6991 184.069 13.9861C183.745 14.2639 183.583 14.7037 183.583 15.3056V20H181.166ZM194.976 20.2778C194.152 20.2778 193.397 20.0787 192.712 19.6806C192.027 19.2824 191.48 18.7454 191.073 18.0694C190.675 17.3935 190.476 16.6481 190.476 15.8333C190.476 15.0093 190.675 14.2639 191.073 13.5972C191.48 12.9213 192.027 12.3843 192.712 11.9861C193.397 11.588 194.152 11.3889 194.976 11.3889C195.809 11.3889 196.564 11.588 197.24 11.9861C197.925 12.3843 198.467 12.9213 198.865 13.5972C199.272 14.2639 199.476 15.0093 199.476 15.8333C199.476 16.6481 199.272 17.3935 198.865 18.0694C198.467 18.7454 197.925 19.2824 197.24 19.6806C196.564 20.0787 195.809 20.2778 194.976 20.2778ZM194.976 18.1111C195.392 18.1111 195.767 18.0093 196.101 17.8056C196.443 17.6019 196.712 17.3287 196.906 16.9861C197.11 16.6343 197.212 16.25 197.212 15.8333C197.212 15.4074 197.11 15.0231 196.906 14.6806C196.712 14.338 196.443 14.0648 196.101 13.8611C195.767 13.6574 195.392 13.5556 194.976 13.5556C194.559 13.5556 194.18 13.6574 193.837 13.8611C193.504 14.0648 193.235 14.338 193.031 14.6806C192.837 15.0231 192.74 15.4074 192.74 15.8333C192.74 16.25 192.837 16.6343 193.031 16.9861C193.235 17.3287 193.504 17.6019 193.837 17.8056C194.18 18.0093 194.559 18.1111 194.976 18.1111Z" fill="#F6F2E6"/>
<path d="M8.46098 20V7.5H11.0443V20H8.46098ZM13.3711 20V11.6667H15.5378V12.5833C15.8341 12.1944 16.1998 11.8981 16.635 11.6944C17.0702 11.4907 17.5378 11.3889 18.0378 11.3889C18.6304 11.3889 19.1813 11.5324 19.6906 11.8194C20.2091 12.0972 20.6258 12.5093 20.9406 13.0556C21.2647 13.5926 21.4267 14.2454 21.4267 15.0139V20H19.01V15.3333C19.01 14.8704 18.8711 14.4583 18.5934 14.0972C18.3156 13.7361 17.9174 13.5556 17.3989 13.5556C16.9822 13.5556 16.6072 13.6991 16.2739 13.9861C15.9498 14.2639 15.7878 14.7037 15.7878 15.3056V20H13.3711ZM26.4237 20.4167L21.8542 11.6667H24.5348L25.8403 14.3472C25.9607 14.5787 26.0718 14.8102 26.1737 15.0417C26.2755 15.2639 26.3774 15.5185 26.4792 15.8056C26.5811 15.5185 26.6829 15.2639 26.7848 15.0417C26.8866 14.8102 26.9977 14.5787 27.1181 14.3472L28.4237 11.6667H30.9931L26.4237 20.4167ZM35.8937 20.2778C34.9585 20.2778 34.1344 20.0833 33.4215 19.6944C32.7085 19.3056 32.153 18.7731 31.7548 18.0972C31.3567 17.412 31.1576 16.6296 31.1576 15.75C31.1576 14.9074 31.352 14.162 31.7409 13.5139C32.1298 12.8565 32.653 12.338 33.3104 11.9583C33.977 11.5787 34.7131 11.3889 35.5187 11.3889C36.3428 11.3889 37.0789 11.5787 37.727 11.9583C38.3752 12.3287 38.8844 12.838 39.2548 13.4861C39.6344 14.1343 39.8243 14.8704 39.8243 15.6944V16.5417H34.7409C34.5094 16.5417 34.2872 16.5278 34.0743 16.5C33.8613 16.4722 33.6483 16.4398 33.4354 16.4028C33.5465 16.9583 33.8196 17.412 34.2548 17.7639C34.6993 18.1065 35.2641 18.2778 35.9493 18.2778C36.477 18.2778 36.9493 18.1713 37.3659 17.9583C37.7919 17.7454 38.1391 17.4815 38.4076 17.1667L38.9354 19.3333C38.5187 19.6481 38.0465 19.8843 37.5187 20.0417C37.0002 20.1991 36.4585 20.2778 35.8937 20.2778ZM33.3798 14.9444C33.8428 14.8426 34.2965 14.7917 34.7409 14.7917H36.2131C36.4724 14.7917 36.7178 14.8009 36.9493 14.8194C37.1807 14.838 37.3983 14.8704 37.602 14.9167C37.4631 14.4167 37.2085 14.0231 36.8381 13.7361C36.477 13.4491 36.028 13.3056 35.4909 13.3056C34.9817 13.3056 34.5372 13.4537 34.1576 13.75C33.7872 14.037 33.528 14.4352 33.3798 14.9444ZM43.9002 20.2778C43.3354 20.2778 42.7613 20.1852 42.178 20C41.6039 19.8148 41.1548 19.5648 40.8308 19.25L41.428 16.9722C41.6965 17.3426 42.0669 17.6667 42.5391 17.9444C43.0206 18.2222 43.516 18.3611 44.0252 18.3611C44.3678 18.3611 44.6132 18.2963 44.7613 18.1667C44.9187 18.037 44.9974 17.8796 44.9974 17.6944C44.9974 17.4815 44.9187 17.3287 44.7613 17.2361C44.6039 17.1343 44.4419 17.0509 44.2752 16.9861L43.1085 16.5417C42.8493 16.4398 42.553 16.3009 42.2197 16.125C41.8863 15.9491 41.5947 15.6991 41.3447 15.375C41.1039 15.0509 40.9835 14.625 40.9835 14.0972C40.9835 13.6157 41.1039 13.1713 41.3447 12.7639C41.5854 12.3565 41.9326 12.0278 42.3863 11.7778C42.8493 11.5185 43.4048 11.3889 44.053 11.3889C44.6548 11.3889 45.215 11.4907 45.7335 11.6944C46.2613 11.8981 46.6456 12.125 46.8863 12.375L46.3308 14.5694C46.016 14.162 45.641 13.8519 45.2058 13.6389C44.7798 13.4167 44.3724 13.3056 43.9835 13.3056C43.6873 13.3056 43.4697 13.3657 43.3308 13.4861C43.1919 13.6065 43.1224 13.7454 43.1224 13.9028C43.1224 14.0231 43.1687 14.1435 43.2613 14.2639C43.3632 14.375 43.5298 14.4769 43.7613 14.5694L44.8447 14.9722C45.1595 15.0833 45.4928 15.2315 45.8447 15.4167C46.2058 15.6019 46.5113 15.8611 46.7613 16.1944C47.0113 16.5185 47.1363 16.9676 47.1363 17.5417C47.1363 18.3472 46.8354 19.0046 46.2335 19.5139C45.641 20.0231 44.8632 20.2778 43.9002 20.2778ZM49.4996 20V13.5833H47.9441V11.6667H49.5413V8.88889H51.8746V11.6667H53.5274V13.5833H51.9163V20H49.4996ZM54.8052 20V11.6667H57.2218V20H54.8052ZM56.0135 10.4583C55.6524 10.4583 55.3468 10.3333 55.0968 10.0833C54.8468 9.83333 54.7218 9.52778 54.7218 9.16667C54.7218 8.7963 54.8468 8.49074 55.0968 8.25C55.3468 8 55.6524 7.875 56.0135 7.875C56.3839 7.875 56.6894 8 56.9302 8.25C57.1802 8.49074 57.3052 8.7963 57.3052 9.16667C57.3052 9.52778 57.1802 9.83333 56.9302 10.0833C56.6894 10.3333 56.3839 10.4583 56.0135 10.4583ZM59.0743 20V11.6667H61.2409V12.5833C61.5372 12.1944 61.903 11.8981 62.3381 11.6944C62.7826 11.4907 63.2456 11.3889 63.727 11.3889C64.2178 11.3889 64.6807 11.4907 65.1159 11.6944C65.5511 11.8981 65.9169 12.1944 66.2131 12.5833C66.5372 12.1944 66.94 11.8981 67.4215 11.6944C67.903 11.4907 68.4261 11.3889 68.9909 11.3889C69.5835 11.3889 70.1391 11.5278 70.6576 11.8056C71.1761 12.0741 71.5974 12.4722 71.9215 13C72.2456 13.5185 72.4076 14.1528 72.4076 14.9028V20H69.9909V15.25C69.9909 14.8056 69.8613 14.412 69.602 14.0694C69.3428 13.7269 68.9678 13.5556 68.477 13.5556C68.2178 13.5556 67.9678 13.6204 67.727 13.75C67.4956 13.8704 67.3057 14.0556 67.1576 14.3056C67.0187 14.5463 66.9493 14.8519 66.9493 15.2222V20H64.5326V15.25C64.5326 14.9537 64.4724 14.6759 64.352 14.4167C64.2409 14.1574 64.0696 13.9491 63.8381 13.7917C63.6159 13.6343 63.3428 13.5556 63.0187 13.5556C62.7594 13.5556 62.5094 13.6204 62.2687 13.75C62.0372 13.8704 61.8474 14.0556 61.6993 14.3056C61.5604 14.5463 61.4909 14.8519 61.4909 15.2222V20H59.0743ZM78.3937 20.2778C77.4585 20.2778 76.6344 20.0833 75.9215 19.6944C75.2085 19.3056 74.653 18.7731 74.2548 18.0972C73.8567 17.412 73.6576 16.6296 73.6576 15.75C73.6576 14.9074 73.852 14.162 74.2409 13.5139C74.6298 12.8565 75.153 12.338 75.8104 11.9583C76.477 11.5787 77.2131 11.3889 78.0187 11.3889C78.8428 11.3889 79.5789 11.5787 80.227 11.9583C80.8752 12.3287 81.3844 12.838 81.7548 13.4861C82.1344 14.1343 82.3243 14.8704 82.3243 15.6944V16.5417H77.2409C77.0094 16.5417 76.7872 16.5278 76.5743 16.5C76.3613 16.4722 76.1483 16.4398 75.9354 16.4028C76.0465 16.9583 76.3196 17.412 76.7548 17.7639C77.1993 18.1065 77.7641 18.2778 78.4493 18.2778C78.977 18.2778 79.4493 18.1713 79.8659 17.9583C80.2919 17.7454 80.6391 17.4815 80.9076 17.1667L81.4354 19.3333C81.0187 19.6481 80.5465 19.8843 80.0187 20.0417C79.5002 20.1991 78.9585 20.2778 78.3937 20.2778ZM75.8798 14.9444C76.3428 14.8426 76.7965 14.7917 77.2409 14.7917H78.7131C78.9724 14.7917 79.2178 14.8009 79.4493 14.8194C79.6807 14.838 79.8983 14.8704 80.102 14.9167C79.9631 14.4167 79.7085 14.0231 79.3381 13.7361C78.977 13.4491 78.528 13.3056 77.9909 13.3056C77.4817 13.3056 77.0372 13.4537 76.6576 13.75C76.2872 14.037 76.028 14.4352 75.8798 14.9444ZM83.6641 20V11.6667H85.8308V12.5833C86.1271 12.1944 86.4928 11.8981 86.928 11.6944C87.3632 11.4907 87.8308 11.3889 88.3308 11.3889C88.9234 11.3889 89.4743 11.5324 89.9835 11.8194C90.5021 12.0972 90.9187 12.5093 91.2335 13.0556C91.5576 13.5926 91.7197 14.2454 91.7197 15.0139V20H89.303V15.3333C89.303 14.8704 89.1641 14.4583 88.8863 14.0972C88.6085 13.7361 88.2104 13.5556 87.6919 13.5556C87.2752 13.5556 86.9002 13.6991 86.5669 13.9861C86.2428 14.2639 86.0808 14.7037 86.0808 15.3056V20H83.6641ZM94.0895 20V13.5833H92.5339V11.6667H94.1311V8.88889H96.4645V11.6667H98.1172V13.5833H96.5061V20H94.0895ZM103.04 20.2778C102.216 20.2778 101.462 20.0787 100.777 19.6806C100.091 19.2824 99.545 18.7454 99.1376 18.0694C98.7395 17.3935 98.5404 16.6481 98.5404 15.8333C98.5404 15.0093 98.7395 14.2639 99.1376 13.5972C99.545 12.9213 100.091 12.3843 100.777 11.9861C101.462 11.588 102.216 11.3889 103.04 11.3889C103.874 11.3889 104.628 11.588 105.304 11.9861C105.989 12.3843 106.531 12.9213 106.929 13.5972C107.337 14.2639 107.54 15.0093 107.54 15.8333C107.54 16.6481 107.337 17.3935 106.929 18.0694C106.531 18.7454 105.989 19.2824 105.304 19.6806C104.628 20.0787 103.874 20.2778 103.04 20.2778ZM103.04 18.1111C103.457 18.1111 103.832 18.0093 104.165 17.8056C104.508 17.6019 104.777 17.3287 104.971 16.9861C105.175 16.6343 105.277 16.25 105.277 15.8333C105.277 15.4074 105.175 15.0231 104.971 14.6806C104.777 14.338 104.508 14.0648 104.165 13.8611C103.832 13.6574 103.457 13.5556 103.04 13.5556C102.624 13.5556 102.244 13.6574 101.902 13.8611C101.568 14.0648 101.3 14.338 101.096 14.6806C100.902 15.0231 100.804 15.4074 100.804 15.8333C100.804 16.25 100.902 16.6343 101.096 16.9861C101.3 17.3287 101.568 17.6019 101.902 17.8056C102.244 18.0093 102.624 18.1111 103.04 18.1111ZM111.693 20.2778C111.128 20.2778 110.554 20.1852 109.971 20C109.397 19.8148 108.948 19.5648 108.624 19.25L109.221 16.9722C109.489 17.3426 109.86 17.6667 110.332 17.9444C110.814 18.2222 111.309 18.3611 111.818 18.3611C112.161 18.3611 112.406 18.2963 112.554 18.1667C112.712 18.037 112.79 17.8796 112.79 17.6944C112.79 17.4815 112.712 17.3287 112.554 17.2361C112.397 17.1343 112.235 17.0509 112.068 16.9861L110.902 16.5417C110.642 16.4398 110.346 16.3009 110.013 16.125C109.679 15.9491 109.388 15.6991 109.138 15.375C108.897 15.0509 108.777 14.625 108.777 14.0972C108.777 13.6157 108.897 13.1713 109.138 12.7639C109.378 12.3565 109.726 12.0278 110.179 11.7778C110.642 11.5185 111.198 11.3889 111.846 11.3889C112.448 11.3889 113.008 11.4907 113.527 11.6944C114.054 11.8981 114.439 12.125 114.679 12.375L114.124 14.5694C113.809 14.162 113.434 13.8519 112.999 13.6389C112.573 13.4167 112.165 13.3056 111.777 13.3056C111.48 13.3056 111.263 13.3657 111.124 13.4861C110.985 13.6065 110.915 13.7454 110.915 13.9028C110.915 14.0231 110.962 14.1435 111.054 14.2639C111.156 14.375 111.323 14.4769 111.554 14.5694L112.638 14.9722C112.952 15.0833 113.286 15.2315 113.638 15.4167C113.999 15.6019 114.304 15.8611 114.554 16.1944C114.804 16.5185 114.929 16.9676 114.929 17.5417C114.929 18.3472 114.628 19.0046 114.027 19.5139C113.434 20.0231 112.656 20.2778 111.693 20.2778Z" fill="#315576"/>
</svg>
